/* XPM */
static char *bb5e9a8dfd764dff81cc215adba0f722ie8ZqPHM1xuRMBq0[] = {
/* columns rows colors chars-per-pixel */
"32 32 39 1 ",
"  c #464445",
". c #464644",
"X c #474546",
"o c #454746",
"O c #464646",
"+ c #474548",
"@ c #464648",
"# c #9B5A3C",
"$ c #D6CB23",
"% c #D4CB24",
"& c #D7CA24",
"* c #D6CB24",
"= c #D6CA26",
"- c #8C9EB2",
"; c #8D9FB3",
": c #8A9FB4",
"> c #8B9FB7",
", c #8D9DB4",
"< c #8C9EB4",
"1 c #8D9FB5",
"2 c #8E9EB5",
"3 c #8D9DB6",
"4 c #8C9EB6",
"5 c #8D9FB7",
"6 c #8E9EB7",
"7 c #8BA0B3",
"8 c #8BA0B5",
"9 c #8EA0B4",
"0 c #8FA0B4",
"q c #8CA1B6",
"w c #8EA0B6",
"e c #8EA0B8",
"r c #F1C699",
"t c #F2C79A",
"y c #F3C79A",
"u c #F2C79C",
"i c #F1C89A",
"p c #F3C89B",
"a c #F2C99B",
/* pixels */
"11111111111111111111111111111111",
"11111111111111111111111111111111",
"1111111118111w1;;1w1118111111111",
"1111111111w11;e>>e;11w1111111111",
"111111111111111;;111111111111111",
"11111111181111####11118111111111",
"11111111111111rrrr11111111111111",
"11111111111;11prrp11;11111111111",
"111111111111;1prrp1;111111111111",
"11111111111w11rrrr11w11111111111",
"1111111118111>1pp1>1118111111111",
"11111111;1811**rr**1181;11111111",
"11111111111wr******rw11111111111",
"111111111111r1$**$1r111111111111",
"111111111111u1****1u111111111111",
"111111111111r1****1r111111111111",
"111111111w11r1****1r11w111111111",
"11111111111;u1****1u;11111111111",
"11111111w11pr8****8rp11w11111111",
"1111111111ww>;+  +;>ww1111111111",
"11111111w111w1 ++ 1w111w11111111",
"11111111111w1;    ;1w11111111111",
"111111111111ww 11 ww111111111111",
"11111111w1111; 11 ;1111w11111111",
"111111111>1188 11 8811>111111111",
"1111111111;111 11 111;1111111111",
"111111111w1711 11 1171w111111111",
"111111111811w1 11 1w118111111111",
"1111111111111pp11pp1111111111111",
"11111111;11>11w11w11>11;11111111",
"111111111w111181181111w111111111",
"111111111;111111111111;111111111"
};
