/* XPM */
static char *_a38dff013d74a02b3de21b6254145d9co9mMeYpySqG0BsF[] = {
/* columns rows colors chars-per-pixel */
"32 32 49 1 ",
"  c #ECA867",
". c #EBA768",
"X c #EBA76A",
"o c #EBA66B",
"O c #ECA66A",
"+ c #ECA66B",
"@ c #EDA76B",
"# c #ECA76C",
"$ c #EAA86B",
"% c #ECA869",
"& c #ECA86B",
"* c #EAA86C",
"= c #EDA96C",
"- c #8C9EB2",
"; c #8D9FB3",
": c #8E9FB3",
"> c #8A9FB4",
", c #8B9FB7",
"< c #8D9DB4",
"1 c #8C9EB4",
"2 c #8D9FB5",
"3 c #8E9EB5",
"4 c #8D9DB6",
"5 c #8C9EB6",
"6 c #8D9FB7",
"7 c #8F9FB6",
"8 c #8E9EB7",
"9 c #8F9FB8",
"0 c #8BA0B3",
"q c #8BA0B5",
"w c #8FA0B4",
"e c #8CA1B6",
"r c #8EA0B6",
"t c #8EA0B8",
"y c #F5E399",
"u c #F4E39B",
"i c #F3E59A",
"p c #F2E49B",
"a c #F4E499",
"s c #F5E59A",
"d c #F4E39D",
"f c #F3E59C",
"g c #F5E49C",
"h c #F6E49C",
"j c #F6E59D",
"k c #F7E59D",
"l c #F4E69D",
"z c #F5E49E",
"x c #F4E69F",
/* pixels */
"22222222;22222222222222;22222222",
"22222222222;202;;202;22222222222",
"222222222q;22,rrrr,22;q222222222",
"222222222;2r222rr222r2;222222222",
"22222222r,222&&$$&&222,r22222222",
"2222222222220&&&&&&0222222222222",
"2222222222222gggggg2222222222222",
"2222222222222gggggg2222222222222",
"2222222222222dggfag2222222222222",
"22222222;22r2fugfgg2;22222222222",
"2222222222222@.&=@&02t2222222222",
"222222222r2r2q..@$2,222222222222",
"2222222222q2&2rgg22=22q222222222",
"2222222222q22uaufpg22;2q22222222",
"22222222r2qgaggggggg222222222222",
"222222222;@g2&&.&&2g&;2222222222",
"2222222222&g2&$==&2d&22222222222",
"2222222222&gqgfgggqg.22r22222222",
"222222222r&f2ggpgg2g=r2222222222",
"222222222q&g2gggpg2g@22222222222",
"2222222222@g2ggguu2g$t;r22222222",
"222222222q29;ggagg;2222222222222",
"22222222;2r;2ugfug2222;222222222",
"2222222222222gggguq2r2q222222222",
"222;202@@&&&@$&&&&&=&&&&2222r222",
"rr2222&&2r@g22.g#22g@22*@2222qq2",
"22222&@&22=g22&g&22g&22&@&q2rr22",
"2222;#=&22&a22&u&r2u&22&=*;t2rr;",
";2q02&@,2.*g2&=g&.2g#&2r& r2q222",
"22;2q22222q22222;r222,22;2222222",
"22222q2;222222q2r222r2222;22q222",
"22222222222222222222q22222222222"
};
