/* XPM */
static char *_288e2cd272f4fa396f70f5cc89c88686NkqmjVeBTe0GTMa[] = {
/* columns rows colors chars-per-pixel */
"32 32 83 1 ",
"  c #197333",
". c #1A7333",
"X c #197532",
"o c #187433",
"O c #1A7532",
"+ c #1B7633",
"@ c #197534",
"# c #187435",
"$ c #1A7434",
"% c #1B7434",
"& c #1B7535",
"* c #197536",
"= c #1A7436",
"- c #1B7537",
"; c #1C7535",
": c #438D10",
"> c #408F10",
", c #428E10",
"< c #438F11",
"1 c #438D12",
"2 c #408F12",
"3 c #428E12",
"4 c #438F13",
"5 c #448E11",
"6 c #458F12",
"7 c #448E13",
"8 c #408E14",
"9 c #418F15",
"0 c #428E14",
"q c #438F15",
"w c #448E15",
"e c #458F16",
"r c #419011",
"t c #419013",
"y c #449012",
"u c #429114",
"i c #429016",
"p c #449014",
"a c #449016",
"s c #69900F",
"d c #6A920E",
"f c #6C910E",
"g c #699011",
"h c #6A9110",
"j c #699210",
"k c #6B9211",
"l c #6A9311",
"z c #6A9112",
"x c #699212",
"c c #6C9110",
"v c #B1DB55",
"b c #B3DB54",
"n c #B2DA55",
"m c #B3DB56",
"M c #B3DB57",
"N c #B5DA56",
"B c #B6DB57",
"V c #B2DC56",
"C c #B3DD57",
"Z c #B4DC55",
"A c #B4DC57",
"S c #8C9EB2",
"D c #8D9EB2",
"F c #8D9FB3",
"G c #8A9FB4",
"H c #8A9EB6",
"J c #8B9FB7",
"K c #8D9DB4",
"L c #8C9EB4",
"P c #8D9FB5",
"I c #8E9EB5",
"U c #8C9EB6",
"Y c #8D9FB7",
"T c #8F9FB6",
"R c #8E9EB7",
"E c #8F9FB8",
"W c #8BA0B3",
"Q c #8BA0B5",
"! c #8CA1B4",
"~ c #8EA0B4",
"^ c #8CA1B6",
"/ c #8EA0B6",
"( c #8EA0B8",
/* pixels */
"PPPPPPPPPPPPPGPPPPQWPPPPPPPPPPPP",
"PPPPPPPPPPP/PPPPPPPPPPQPPPPPPPPP",
"PPPPPPPPPPPP/PPDPDW//PPPPPPPPPPP",
"PPPPPPPPPQP/GD/PPGQPP/QPPPPPPPPP",
"PPPPPPPPPPPP7q444774PPPPPPPPPPPP",
"PPPPPPPPPPP44mmqCt444/PPPPPPPPPP",
"PPPPPPPPPPq4744X=X4mm4PPPPPPPPPP",
"PPPPPPPPP4N4===dh4 4444PPPPPPPPP",
"(PPP(PPPq4m=h44444h=4444/PPPPPDP",
"PPDPQP/4m44h44mmCm7w 4C44QPP/PPP",
"P/PD/Pt7mpy4pmp444pmtXtmt4PDP/PP",
"PPPPPq=C7q4=tp4dh4X=4A=tmp4GP/PP",
"PPPP74=mq7XdhqAAi4h4=4=h4474P(PP",
"PPPP4q=44=4p4AX =y4h4=qX44y4PDPP",
"PPPP4h=qXcpm7=4hh qmh=i 77m4PPDP",
"PPPQpmX4=h4C4=hhcp=mh 4=44m4PPQP",
"PPPPtN44=44q4=h4==m4hX4=h4A4PPPP",
"PPDP4t47=htNA=h44t44c=4=h4t4DPPP",
"PPPP44h4=4h4q4fhhhh74X4p=tw4PGP/",
"PPPW4t47=444NC4444h7=7m=t4t7PEDP",
"PPPP/qptt=i4h7======4th=4pwQPPPP",
"/PPPP/444m=4htq744p4A4h4t4//PPQW",
"PGPP/PP444m=444447mt4444qPPPPPPP",
"PDPPPPPP4w44====;7hh4mN4PPPPPP//",
"PPPPPPPP/44pm4474pt44p4PPPPPPPPP",
"PPPPPPPPPP4tp4444CCm44/PPPPPPPPP",
"PPPPPPPPDQ/qtqmmp4444/PPPPPPPPPP",
"PPPPPPPPPPGP447744p4PDPPPPPPPPPP",
"PPPPPPPPPP/GPQPPQQD/P(G/PPPPPPPP",
"PPPPPPPPPPPPPDPPPPPPPPPPPPPPPPPP",
"PPPPPPPPQDP//PQPPPPPPPPDPPPPPPPP",
"PPPPPPPPQPPPP/PQPPPPPPPPPPPPPPPP"
};
