/* XPM */
static char *c6bb71323f1f441de44fb43218186bb8XWFtxLbbi56WY6hp[] = {
/* columns rows colors chars-per-pixel */
"32 32 6 1 ",
"  c #8D9FB3",
". c #8D9FB5",
"X c #8E9EB7",
"o c #8BA0B5",
"O c #8EA0B4",
"+ c #8EA0B8",
/* pixels */
"................................",
"................................",
"..........+O........O+..........",
".........oo.O......O.oo.........",
"............o......o............",
"........O....o....o....O........",
"............o......o............",
"........ .............. ........",
"..........O..o....o..O..........",
".........O.o........o.O.........",
"................................",
"................X...............",
"............ ...................",
".............................X..",
"................................",
"................................",
"..........X.....................",
"..........................X.....",
".................X..............",
"................................",
"................................",
".....................X..........",
"...........X.....X........X.....",
"....X...........................",
"........X.......................",
"................................",
"............X...........X.......",
"...X..................X.........",
"................................",
"................................",
"...........X......X.............",
"....X..........................."
};
