/* XPM */
static char *ccb96f393289442fc1bba11cfeb0f82cm7JjoxAPHLDfdgLp[] = {
/* columns rows colors chars-per-pixel */
"32 32 40 1 ",
"  c #282629",
". c #29272A",
"X c #523225",
"o c #533326",
"O c #513426",
"+ c #533328",
"@ c #8A9FB2",
"# c #8C9EB2",
"$ c #8D9FB3",
"% c #8E9FB3",
"& c #8D9DB4",
"* c #8C9EB4",
"= c #8D9FB5",
"- c #8E9EB5",
"; c #8D9FB7",
": c #8F9FB6",
"> c #8E9EB7",
", c #8BA0B5",
"< c #8EA0B4",
"1 c #8FA0B4",
"2 c #8CA1B6",
"3 c #8EA0B6",
"4 c #8FA1B7",
"5 c #8EA0B8",
"6 c #B2B4B1",
"7 c #B3B5B2",
"8 c #B4B4B2",
"9 c #B5B3B4",
"0 c #B3B5B4",
"q c #B4B4B4",
"w c #B6B4B5",
"e c #C6B3A5",
"r c #C8B2A4",
"t c #C9B3A5",
"y c #FEFEFC",
"u c #FFFFFD",
"i c #FEFEFE",
"p c #FEFEFF",
"a c #FEFFFF",
"s c white",
/* pixels */
"================================",
"==============qqqq==============",
"==========5<=9q99q9=<5==========",
"=========,,=<060060<=,,=========",
"============,8qqqq8,============",
"========<====,6006,====<========",
"============,=rrrr=,============",
"========$=====rrrr=====$========",
"==========<==,=rr=,==<==========",
"=========<=,aaaaaaaa,=<=========",
"===========aaaaaaaaaa===========",
"===========aaaaaaaaaa===========",
"========$==a$aaaaaa$a==$========",
"===========a=aaaaaa=a===========",
"========$==a<aaaaaa<a==$========",
"===========a,aaaaaa,a===========",
"=========<$a<aaaaaa<a$<=========",
"========@$=a=aaaaaa=a=$@========",
"==========<e=aaaaaa=e<==========",
"========,$,r5aaaaaa5r,$,========",
"=============aaaaaa=============",
"=============aaaaaa=============",
"=============aaaaaa=============",
"===========,=$X,,X$=,===========",
"==============X==X==============",
"============<=+==+=<============",
"==============X==X==============",
"============<=X==X=<============",
"=========$<==$O==O$==<$=========",
"============<<r==r<<============",
"=============..==..===$=========",
"========,===...$=...=$=,========"
};
