/* XPM */
static char *result[] = {
/* columns rows colors chars-per-pixel */
"32 32 53 1 ",
"  c #292728",
". c #29272A",
"X c #28282A",
"o c #2A282B",
"O c #533324",
"+ c #523225",
"@ c #533326",
"# c #543324",
"$ c #543427",
"% c #543228",
"& c #8C9EB2",
"* c #8D9FB3",
"= c #8E9FB3",
"- c #8A9FB4",
"; c #8B9FB7",
": c #8D9DB4",
"> c #8C9EB4",
", c #8D9FB5",
"< c #8E9EB5",
"1 c #8C9EB6",
"2 c #8D9FB7",
"3 c #8F9FB6",
"4 c #8E9EB7",
"5 c #8BA0B5",
"6 c #8CA1B4",
"7 c #8EA0B4",
"8 c #8CA1B6",
"9 c #8EA0B6",
"0 c #8EA0B8",
"q c #C7B1A3",
"w c #C6B3A4",
"e c #C8B3A2",
"r c #C8B2A4",
"t c #C9B2A4",
"y c #C9B3A5",
"u c #B6C7E1",
"i c #B4C8E1",
"p c #B5C9E1",
"a c #B5C9E2",
"s c #B7C8E2",
"d c #B4CAE2",
"f c #B6CAE3",
"g c #B5C9E4",
"h c #EBEBE9",
"j c gray92",
"k c #ECEAEB",
"l c #EAECEB",
"z c #ECECEC",
"x c #FEFEFC",
"c c #FFFFFD",
"v c #FEFEFE",
"b c #FEFFFF",
"n c white",
/* pixels */
",,,,,,,,,,,0,,,,,,5,<,,-,,,,,,,,",
",,,,,,,,**,,,,aisp,92,,2,,,,,,,,",
",,,,,,,,,,,,,fadaff<,*9,,,,,,,,,",
",,,,,,,,,:,5,,riuaa*4,,,,,,,,,,,",
",,,,,,,,,,5<<,rwadi8,,4*,,,,,,,,",
",,,,,,,,,,,*,,eyqga9,>,,,,,,,,,,",
",,,,,,,,,,>,<,trrr,,;*,,,,,,,,,,",
",,,,,,,,,2,,,,rrrr,;<>,2,,,,,,,,",
",,,,,,,,,,,,,,,ee,,,,,,,,,,,,,,,",
",,,,,,,,>,,,29nnvn,2,,,,,,,,,,,,",
",,,,,,,,<,,,9,vnnn>9>,><,,,,,,,,",
",,,,,,,,<*2,1,nbln9192*<,,,,,,,,",
",,,,,,,,,99,9,nnjv,,,,,,,,,,,,,,",
",,,,,,,,*<5,,,nnjn,,>8<*,,,,,,,,",
",,,,,,,,,,,,,9cchx,,,>,,,,,,,,,,",
",,,,,,,,<,52>9nnzn,925,<,,,,,,,,",
",,,,,,,,,,,,,5nnln5>25,,,,,,,,,,",
",,,,,,,,,,,,,,nnjn,,,,2,,,,,,,,,",
",,,,,,,,,,,<2<nnkn,,=,,,,,,,,,,,",
",,,,,,,,,,,,9>nnjc,<23,>,,,,,,,,",
",,,,,,,,,*2<>,nbtc,,,<2,,,,,,,,,",
",,,,,,,,,,,>,5nnrv,2,,,,,,,,,,,,",
",,,,,,,,,,,95,nnnn,><,5,,,,,,,,,",
",,,,,,,,,,9*=,,#@2,,,>,,,,,,,,,,",
",,,,,,,,,,,,,>,@@*;,<,,,,,,,,,,,",
",,,,,,,,,2,,<8,+@5,5,,*,,,,,,,,,",
",,,,,,,,>,;,,&9@O9<,,,,,,,,,,,,,",
",,,,,,,,,,<8:9>%@,,5>9,,,,,,,,,,",
",,,,,,,,,*3,,>0@$2,,3=,6,,,,,,,,",
",,,,,,,,,,,0*,,rr,,,;,<,,,,,,,,,",
",,,,,,,,,,2,2>o .,,5*,7,,,,,,,,,",
",,,,,,,,1,<;,X...>,*9,,<,,,,,,,,"
};
