/* XPM */
static char *_f04c8f774a344aee905f65963fda77comZe6z2E33UJb8QR[] = {
/* columns rows colors chars-per-pixel */
"32 32 56 1 ",
"  c #292728",
". c #29272A",
"X c #28282A",
"o c #2A282B",
"O c #533324",
"+ c #523225",
"@ c #533326",
"# c #543324",
"$ c #543427",
"% c #543228",
"& c #628123",
"* c #8B9DB3",
"= c #8C9EB2",
"- c #8D9FB3",
"; c #8E9FB3",
": c #8A9FB4",
"> c #8B9FB7",
", c #8D9DB4",
"< c #8C9EB4",
"1 c #8D9FB5",
"2 c #8E9EB5",
"3 c #8C9EB6",
"4 c #8D9FB7",
"5 c #8F9FB6",
"6 c #8E9EB7",
"7 c #8BA0B3",
"8 c #8BA0B5",
"9 c #8CA1B4",
"0 c #8EA0B4",
"q c #8CA1B6",
"w c #8EA0B6",
"e c #8EA0B8",
"r c #C7B1A3",
"t c #C7B4A5",
"y c #C8B3A2",
"u c #C8B2A4",
"i c #C9B2A4",
"p c #C9B3A5",
"a c #B4C8E1",
"s c #B4CAE1",
"d c #B5C9E2",
"f c #B7C8E2",
"g c #B4CAE2",
"h c #B5CBE3",
"j c #B6CAE3",
"k c #B5C9E4",
"l c #EBEBE9",
"z c gray92",
"x c #ECEAEB",
"c c #EAECEB",
"v c #ECECEC",
"b c #FEFEFC",
"n c #FFFFFD",
"m c #FEFEFE",
"M c #FEFFFF",
"N c white",
/* pixels */
"11111111:11118111111111111111111",
"111111111111w1ffkf1-118111111111",
"111111111w-11ffffff1w11111111111",
"111111111111-ffffu11ww1111111111",
"11111111-111wfffut11w11111111111",
"111111111111wfkrur11111111111111",
"1111111111-811uuu&17111111111111",
"111111111-11:1uuuu11111111111111",
"111111111111111yy111111111111111",
"11111111111111mmmmw1111111111111",
"111111111111w1mmmm1w111111111111",
"111111111-1w1wmcmm1111-111111111",
"11111111111111mzmm1w1ww111111111",
"11111111-1w111mzmm11181-11111111",
"11111111111111mzmmw1111111111111",
"111111111181w1mvmmw1181111111111",
"11111111118118mcmm81111111111111",
"11111111111111mzmm11111111111111",
"11111111111-11mxmm11111111111111",
"11111111111e11mzmm1w111111111111",
"11111111111111mumm8111-111111111",
"11111111111111mumm81111111111111",
"11111111181111mmmm18111111111111",
"11111111w111111@#11--w1111111111",
"1111111111111:-@@111111111111111",
"111111111-11818@@1w1111111111111",
"11111111111111w@@w-11:1111111111",
"1111111111w1811@%1w1w11111111111",
"11111111w1-1111$@e*111-111111111",
"11111111111:111uu11-e11111111111",
"111111111w1-811..o11111111111111",
"11111111111w-11...o1:11111111111"
};
