/* XPM */
static char *_a64496ea2204a70c4cbdc7ffd3d46013I4KoRwmFOk32Vza[] = {
/* columns rows colors chars-per-pixel */
"32 32 60 1 ",
"  c #282629",
". c #29272A",
"X c #43281F",
"o c #533324",
"O c #523225",
"+ c #533326",
"@ c #513426",
"# c #533328",
"$ c #967109",
"% c #638024",
"& c #638026",
"* c #8D9FB3",
"= c #8E9FB3",
"- c #8B9FB7",
"; c #8D9DB4",
": c #8C9EB4",
"> c #8D9FB5",
", c #8E9EB5",
"< c #8C9EB6",
"1 c #8D9FB7",
"2 c #8F9FB6",
"3 c #8E9EB7",
"4 c #8BA0B3",
"5 c #8AA0B5",
"6 c #8BA0B5",
"7 c #8CA1B6",
"8 c #8EA0B6",
"9 c #8FA1B7",
"0 c #8CA0B8",
"q c #8EA0B8",
"w c #C2A48C",
"e c #C7B1A4",
"r c #C6B3A4",
"t c #C8B1A3",
"y c #C8B3A2",
"u c #C8B2A4",
"i c #C9B2A4",
"p c #C8B2A5",
"a c #A3BDDE",
"s c #A3BDE0",
"d c #A1BEE0",
"f c #A3BDE2",
"g c #A4BCE0",
"h c #A4BEE1",
"j c #B4C8E1",
"k c #B5C9E1",
"l c #B5C9E2",
"z c #B7C8E2",
"x c #B4CAE2",
"c c #B6CAE2",
"v c #B6CAE3",
"b c #B5C9E4",
"n c #FEFEFC",
"m c #FFFFFD",
"M c #FFFDFE",
"N c #FDFFFE",
"B c #FEFEFE",
"V c #FFFEFF",
"C c #FEFFFF",
"Z c white",
/* pixels */
">>>>>>>>=>>>>>>>>>=8>>>>>>>>>>>>",
">>>>>>>>>>6>6>llll>>6>>>>>>>>>>>",
">>>>>>>>68=>>llllll6>>>>>>>>>>>>",
">>>>>>>>>>8>qlpppyb>6>>>>>>>>>>>",
">>>>>>>>>>=>>lppprl>>>>>>>>>>>>>",
">>>>>>>>>>>>>>yppy>=>>>>>>>>>>>>",
">>>>>>>>>>=>>>rw%p6>>>>>>>>>>>>>",
">>>>>>>>8>>=>>rp%y>>>>>>>>>>>>>>",
">>>>>>>>=>>>>>8pp8>>>>>=>>>>>>>>",
">>>>>>>>4>>>nnfppfnn>>>4>>>>>>>>",
">>>>>>>>>>>nnnffffnnn>>>>>>>>>>>",
">>>>>>>>>>>nnnnaannnn>>>>>>>>>>>",
">>>>>>>>>>>n=nnffnn=n>>>>>>>>>>>",
">>>>>>>>>8>n-nnggnn-n>8>>>>>>>>>",
">>>>>>>>>>>n>nnffnn>n>>>>>>>>>>>",
">>>>>>>>>=>n>nnffnn>n>=>>>>>>>>>",
">>>>>>>>>6>n>nngfnn>n=>>>>>>>>>>",
">>>>>>>>>>>n=nnffnn>n>8>>>>>>>>>",
">>>>>>>>6>>n6nnffnn>n8>>>>>>>>>>",
">>>>>>>>6>>n>nn$Xnn>n>>>>>>>>>>>",
">>>>>>>>>>>r>nnOOnn>p>>>>>>>>>>>",
">>>>>>>>>q>p>nnO#nn8y>>>>>>>>>>>",
">>>>>>>>>>1>>nnOOnn>>>>=>>>>>>>>",
">>>>>>>>8>>>>>OOOO>>>>>6>>>>>>>>",
">>>>>>>>>>>>>>O>>O>>>>>>>>>>>>>>",
">>>>>>>>>>>>8>#>>#>q>>>>>>>>>>>>",
">>>>>>>>>>>>>>O>>O>>>>>>>>>>>>>>",
">>>>>>>>>>>>8>O>>O>8>>>>>>>>>>>>",
">>>>>>>>>=8>>=@>>@=>>8=>>>>>>>>>",
">>>>>>>>>>>>88p>>p88>>>>>>>>>>>>",
">>>>>>>>>>>>>..>>..>>>=>>>>>>>>>",
">>>>>>>>6>>>...=>...>=>6>>>>>>>>"
};
