/* XPM */
static char *d5a0716bbdbc4abf86b524794f12669bM8cKCCQw1Sqk2Dym[] = {
/* columns rows colors chars-per-pixel */
"32 32 27 1 ",
"  c #29363F",
". c #2C3343",
"X c #2A3440",
"o c #2B3541",
"O c #2A3740",
"+ c #2A3642",
"@ c #2C3642",
"# c #2D3743",
"$ c #2D3444",
"% c #2C3544",
"& c #2E3545",
"* c #2D3645",
"= c #2F3447",
"- c #2B3841",
"; c #484A5F",
": c #494961",
"> c #494B60",
", c #4B4863",
"< c #494B62",
"1 c #4A4A62",
"2 c #4B4B63",
"3 c #4A4C61",
"4 c #4A4A64",
"5 c #4C4964",
"6 c #4D4A65",
"7 c #4D4866",
"8 c #4C4C64",
/* pixels */
"$@@@$1@@$@@@@@1@@@@@@@$1@@O@O@@@",
"O@@@@1@@@@@@O@1@O@O@@OO1@@@O@@O@",
"@-@@$1@@O@@@@@1@@@@O@$@1.@@OO@@$",
"O$O@O1O@O@$@ O1@@@O$@@@1OO@@$OO@",
"@O@@@1$$@@O$@$1$@@$O@@O5$@@OO@$@",
"11111;51511811111111111;11111111",
"@1@@@@@@@@1O@OO@@O@1@$O@@O$O1@@@",
".1@@@@@@@@1$$@@@@@$1O@@@$@@@1@@@",
"@1$O$@@@@@1O@O@@@@@1@@@$@@O@1@@@",
"@1@@@$@@@@1@@@@@@@@1@@@@@OO@1$@@",
"@1@@@@O@@@1@@@@@@@O5@@@@@@@@1@@@",
"51111515151151555111511515151555",
"O$ $ 1O.OO@.O@1OO.@.@O@1OOO@$O@@",
"@O@@$1@$@@O@@@1@@@@-@@@1@@@@OO@@",
"@@@@@1@O@@@@OO;@@@@$@@@1OO@O$@O@",
"@@@@@1@@$@@@O@1O@O@@@@@1@@@@@O@@",
"@@@@@1@O@@@@@@1@@@@@@O@1$@@@O$$@",
"11111111111111315111111111111151",
"$1O@@$@@@O1@@@@@@@@1@@@$@@@@1@@@",
"O1@O$O@O$O1OO@ OO@@5@OO $@@@5@@@",
"@1@$@$@@@@1$@@$@@$@1@@@$@@@@1@@@",
"@5@O@@OO@@1@@O@O@O@5OO@@@@O@1O@@",
"@1$@O@O$@@;.@@@$$O@1@@@@@@@O5@@@",
"11111111114111111115111111111111",
"$@@@$1@@$@@@@@1@@@@@@@$1@@O@O@@@",
"O@@@@1@@@@@@O@1@O@O@@OO1@@@O@@O@",
"@-@@$1@@O@@@@@1@@@@O@$@1.@@OO@@$",
"O$O@O1O@O@$@ O1@@@O$@@@1OO@@$OO@",
"@O@@@1$$@@O$@$1$@@$O@@O5$@@OO@$@",
"11111;51511811111111111;11111111",
"@1@@@@@@@@1O@OO@@O@1@$O@@O$O1@@@",
".1@@@@@@@@1$$@@@@@$1O@@@$@@@1@@@"
};
